<svg xmlns="http://www.w3.org/2000/svg" version="1.1" xmlns:xlink="http://www.w3.org/1999/xlink" xmlns:svgjs="http://svgjs.dev/svgjs" width="100%" height="100%" viewBox="0 0 1000 600"><rect width="1000" height="600" x="0" y="0" fill="#557854"/><g><rect width="333.3333333333333" height="333.3333333333333" y="175.887618419171" fill="#fce77d" transform="matrix(0.8134556473701544,0,0,0.8134556473701545,0,21.347259348731825)" x="153.66537475585938"/><path d="M320.33204410082146 417.5542887252217L320.33204410082146 417.5542887252217Q304.87568804989104 417.5542887252217 292.6518563751657 411.87699801407143Q280.42802470044046 406.22687137330956 271.87134252813274 396.2033294000348Q263.314660355825 386.1797874267601 258.77826060098255 372.4347678102912Q254.21469677575178 358.6897481938223 254.21469677575178 342.55429038318493L254.21469677575178 342.55429038318493Q254.21469677575178 326.41883257254756 258.6152761786529 312.6738129560787Q263.015855581554 298.9287933396098 271.49104554269684 288.90525136633505Q279.93907143345143 278.8817093930603 292.2715593897299 273.2315827522983Q304.57688327562 267.5542920411482 320.33204410082146 267.5542920411482L320.33204410082146 267.5542920411482Q335.67974387019876 267.5542920411482 347.9579036857006 273.2315827522983Q360.23606350120247 278.8817093930603 368.7927456735102 288.90525136633505Q377.3494278458179 298.9287933396098 381.8858276006604 312.6738129560787Q386.4493914258911 326.41883257254756 386.4493914258911 342.55429038318493L386.4493914258911 342.55429038318493Q386.4493914258911 358.6897481938223 382.0488120229901 372.4347678102912Q377.64823262008895 386.1797874267601 369.1730426589461 396.2033294000348Q360.7250167681915 406.22687137330956 348.39252881191305 411.87699801407143Q336.08720492602293 417.5542887252217 320.33204410082146 417.5542887252217ZM366.1035027050706 345.59666626667206L366.1035027050706 345.59666626667206Q366.1035027050706 337.77341399484794 365.01693988953946 330.1946383565182Q363.9575411443966 322.6158627181885 361.59426702061637 315.7976810507307Q359.2581569672244 309.0066634536611 355.5366793240303 303.1935523905695Q351.81520168083614 297.3804413274779 346.6811923774515 293.17001041729475Q341.54718307406694 288.9595795071116 334.8648217585504 286.5691413129431Q328.15529637264564 284.1787031187746 319.7344345522793 284.1787031187746L319.7344345522793 284.1787031187746Q307.72791544066024 284.1787031187746 299.1712332683526 288.8237591551702Q290.61455109604486 293.4688151915658 285.12740887761265 301.18341118183685Q279.6402666591804 308.92517124249616 277.1140081130705 318.7857287934413Q274.56058549657234 328.6734504147746 274.56058549657234 339.13161751426185L274.56058549657234 339.13161751426185Q274.56058549657234 347.06352606763915 275.70147645288 354.66946577635713Q276.8152033387994 362.30256955546326 279.15131339219135 369.2022434340861Q281.5145875159716 376.1019173127088 285.1817370183892 381.9150283758004Q288.8488865208068 387.72813943889196 293.98289582419136 391.9385703490751Q299.11690512757605 396.1490012592583 305.7992664430925 398.5394394534268Q312.5087918289973 400.9298776475953 320.92965364936356 400.9298776475953L320.92965364936356 400.9298776475953Q328.8343981323526 400.9298776475953 335.2994468847629 398.72958794614465Q341.73733156678486 396.52929824469413 346.78984865900463 392.7263283903352Q351.81520168083614 388.8961944655879 355.4280230424772 383.62636481026186Q359.0680084745065 378.35653515493584 361.458446668675 372.2446193175732Q363.8488848628435 366.1327034802106 364.9626117487629 359.3145218127527Q366.1035027050706 352.52350421568315 366.1035027050706 345.59666626667206Z " fill="#557854" transform="matrix(0.8134556473701544,0,0,0.8134556473701545,0,21.347259348731825)"/><path d="M588.4454070673717 333.21009522528084L588.4454070673717 379.33550538096154L572.9196679410607 379.33550538096154L572.9196679410607 283.96310789076495L570.3320447533421 269.1766896752306Q572.5500074856723 268.8070292198422 575.7742681243374 268.51951553231794Q578.9779920710364 268.21146515282766 582.612986549022 267.98556154120143Q586.2274443350416 267.7801946215412 589.841902121061 267.65697446974514Q593.4768965990465 267.554291009915 596.3520334742893 267.554291009915L596.3520334742893 267.554291009915Q604.8542239482216 267.554291009915 612.6581668953093 269.07400621540046Q620.4621098423968 270.57318472891995 626.4382872045086 274.1260324390414Q632.4350012585865 277.67888014916286 635.9878489687078 283.44969059161446Q639.5406966788294 289.22050103406605 639.5406966788294 297.7226915079983L639.5406966788294 297.7226915079983Q639.5406966788294 308.0731842588724 635.8440921249457 314.91190268355706Q632.1474875710621 321.7506211082416 625.4114526062076 325.8168861175136Q618.6754176413531 329.8831511267856 609.24907602895 331.5466231760332Q599.8227344165467 333.21009522528084 588.4454070673717 333.21009522528084L588.4454070673717 333.21009522528084ZM586.9667652458182 278.87000828319196L588.4454070673717 294.53950425326525L588.4454070673717 322.7774557065427Q597.3172579966923 322.7774557065427 604.197049805309 321.7506211082416Q611.0768416139256 320.70324981797467 615.8002807661103 318.01294317042607Q620.5237199182948 315.3020998309114 622.9675862622512 310.5786606787268Q625.4114526062076 305.8552215265422 625.4114526062076 298.3798656509109L625.4114526062076 298.3798656509109Q625.4114526062076 292.8349588200856 623.0908064140474 288.91245065457576Q620.7496235299211 284.9899424890659 617.0530189760375 282.4844660692115Q613.3564144221539 279.9789896493571 608.7767321137314 278.82893489925993Q604.197049805309 277.67888014916286 599.6789775727846 277.67888014916286L599.6789775727846 277.67888014916286Q598.4262393628574 277.67888014916286 596.6806205457457 277.78156360899294Q594.9555384206001 277.9047837607891 593.1688462195563 278.0485406045512Q591.4026907104785 278.1922974483133 589.739218661231 278.4182010599395Q588.0757466119833 278.64410467156574 586.9667652458182 278.87000828319196L586.9667652458182 278.87000828319196ZM706.7367527916465 366.0277289869806L708.2153946132 379.33550538096154L692.6896554868889 379.33550538096154L692.6896554868889 367.362613964772L685.7482536023742 375.63890082707803Q684.474978700481 376.6041253494809 682.8525800351654 377.48720310401984Q681.2301813698498 378.37028085855866 679.5667093206022 379.0685283854033Q677.9032372713546 379.787312604214 676.2397652221069 380.17750975156844Q674.5762931728593 380.58824359088885 673.17979811917 380.58824359088885L673.17979811917 380.58824359088885Q667.6348912883445 380.58824359088885 662.5623283727377 378.86316146574313Q657.4897654571307 377.11754264863146 653.6904774434171 373.7495251662042Q649.8911894297033 370.38150768377693 647.6321533134412 365.3910915360341Q645.373117197179 360.40067538829123 645.373117197179 353.9110807270289L645.373117197179 353.9110807270289Q645.373117197179 347.0312889184122 648.1455706125917 341.9587260028053Q650.9180240280043 336.90669977916434 655.2512660328346 333.5386822967371Q659.5639713456987 330.1706648143098 664.882974564898 328.5071927650622Q670.2225144760631 326.8437207158146 675.3156140836361 326.8437207158146L675.3156140836361 326.8437207158146Q679.5256359366701 326.8437207158146 682.7498965753352 327.29552793906703Q685.9536205220344 327.7267984703534 688.1715832543646 328.322362537368L688.1715832543646 328.322362537368Q690.759206442083 328.9795366802807 692.6896554868889 329.80100435892143L692.6896554868889 329.80100435892143L692.6896554868889 327.21338117120297Q692.6896554868889 322.85960247440676 692.1762381877384 319.3683648401833Q691.6628208885879 315.897663897926 690.0609589152384 313.4948709379016Q688.4796336338549 311.09207797787735 685.481276606816 309.83933976795004Q682.482919579777 308.58660155802283 677.5335768159662 308.58660155802283L677.5335768159662 308.58660155802283Q673.5494585745583 308.58660155802283 669.8528540206747 309.1410922411054Q666.1562494667911 309.695582924188 663.2605758995824 310.3527570671006L663.2605758995824 310.3527570671006Q659.872021725189 311.1742247457414 656.9763481579803 312.05730250028023L656.9763481579803 312.05730250028023L651.6573449387811 302.1586169726586Q654.9021422694123 300.67997515110517 659.0505540465483 299.48884701707607L659.0505540465483 299.48884701707607Q662.6034017566697 298.46201241877503 667.4705977526164 297.59947135620223Q672.3583304405291 296.75746698559533 678.2728977267429 296.75746698559533L678.2728977267429 296.75746698559533Q686.7750882006752 296.75746698559533 692.3199950315006 299.0370397938236Q697.864901862326 301.3371492940179 701.048089117059 305.4855610711538Q704.2312763717921 309.6134361563238 705.4840145817193 315.4253199827075Q706.7367527916465 321.2166671171251 706.7367527916465 328.322362537368L706.7367527916465 328.322362537368L706.7367527916465 366.0277289869806ZM692.6896554868889 359.08632710246593L692.6896554868889 339.9255934981693Q690.6154495983209 339.6380798106451 688.2537300222286 339.3300294311547L688.2537300222286 339.3300294311547Q686.2616709015247 339.12466251149453 683.6740477138062 338.8987588998683Q681.0864245260876 338.6728552882421 678.2728977267429 338.6728552882421L678.2728977267429 338.6728552882421Q674.1244859496069 338.6728552882421 670.6948583912815 339.4943229668829Q667.2652308329563 340.2952539535577 664.7392177211358 342.10248284656745Q662.2337413012813 343.9302484315432 660.816709555626 346.805385306786Q659.4202145019366 349.68052218202877 659.4202145019366 353.82893395916483L659.4202145019366 353.82893395916483Q659.4202145019366 357.15587805766006 660.5291958681016 359.8872580891407Q661.6381772342668 362.6186381206213 663.5686262790726 364.63123393329136Q665.4785386319124 366.6232930539952 668.107235203563 367.6912010362282Q670.7359317752137 368.75910901846134 673.7548254942185 368.75910901846134L673.7548254942185 368.75910901846134Q675.1718572398739 368.75910901846134 676.7531825212575 368.34837517914093Q678.355044494607 367.9581780317866 679.9363697759906 367.2804671969079Q681.5176950573741 366.6232930539952 683.1195570307236 365.7402152994564Q684.7008823121072 364.8366008529515 686.1179140577625 363.9535230984127L686.1179140577625 363.9535230984127Q689.4448581562577 361.81770713394656 692.6896554868889 359.08632710246593L692.6896554868889 359.08632710246593ZM746.6600819735893 309.83933976795004L746.6600819735893 351.5288244589706Q746.6600819735893 356.4165571468833 747.2145726566719 359.7024278614465Q747.7690633397544 362.9882985760097 748.8369713219874 365.0214310806457Q749.9048793042205 367.0545635852817 751.50674127757 367.91710464785444Q753.0880665589535 368.75910901846134 755.1622724475216 368.75910901846134L755.1622724475216 368.75910901846134Q756.7846711128373 368.75910901846134 758.1195560906285 368.57427879076715Q759.4544410684198 368.38944856307296 760.4196655908227 368.10193487554864L760.4196655908227 368.10193487554864Q761.5286469569878 367.79388449605835 762.4117247115266 367.42422404066997L762.4117247115266 367.42422404066997L767.5048243190996 376.3782217378547Q766.909260252085 376.9737858048693 765.6154486582258 377.6720333317139Q764.3216370643665 378.37028085855866 762.5554815552888 379.0479916934373Q760.789326046211 379.7051658363499 758.5302899299488 380.15697305960236Q756.2712538136867 380.58824359088885 753.6836306259681 380.58824359088885L753.6836306259681 380.58824359088885Q747.0297424289777 380.58824359088885 742.8813306518416 378.14437724693244Q738.7534555666716 375.7210475949421 736.4533460664775 371.49048904994197Q734.1737732582492 367.2804671969079 733.3933789635405 361.69448698215047Q732.6129846688317 356.1290434593591 732.6129846688317 349.7626689498928L732.6129846688317 349.7626689498928L732.6129846688317 309.83933976795004L721.523171007181 309.83933976795004L721.523171007181 298.0102051955226L732.6129846688317 298.0102051955226L732.6129846688317 282.5666128370756L746.290421518201 274.35193605066763L746.290421518201 298.0102051955226L771.4273324846095 298.0102051955226L769.9486906630559 309.83933976795004L746.6600819735893 309.83933976795004ZM843.5111212853394 366.0277289869806L844.9897631068928 379.33550538096154L829.4640239805817 379.33550538096154L829.4640239805817 367.362613964772L822.522622096067 375.63890082707803Q821.2493471941739 376.6041253494809 819.6269485288582 377.48720310401984Q818.0045498635427 378.37028085855866 816.341077814295 379.0685283854033Q814.6776057650475 379.787312604214 813.0141337157997 380.17750975156844Q811.3506616665521 380.58824359088885 809.9541666128629 380.58824359088885L809.9541666128629 380.58824359088885Q804.4092597820375 380.58824359088885 799.3366968664305 378.86316146574313Q794.2641339508236 377.11754264863146 790.4648459371099 373.7495251662042Q786.6655579233961 370.38150768377693 784.406521807134 365.3910915360341Q782.1474856908718 360.40067538829123 782.1474856908718 353.9110807270289L782.1474856908718 353.9110807270289Q782.1474856908718 347.0312889184122 784.9199391062845 341.9587260028053Q787.6923925216972 336.90669977916434 792.0256345265275 333.5386822967371Q796.3383398393916 330.1706648143098 801.6573430585908 328.5071927650622Q806.9968829697559 326.8437207158146 812.0899825773289 326.8437207158146L812.0899825773289 326.8437207158146Q816.300004430363 326.8437207158146 819.5242650690282 327.29552793906703Q822.7279890157272 327.7267984703534 824.9459517480574 328.322362537368L824.9459517480574 328.322362537368Q827.533574935776 328.9795366802807 829.4640239805817 329.80100435892143L829.4640239805817 329.80100435892143L829.4640239805817 327.21338117120297Q829.4640239805817 322.85960247440676 828.9506066814313 319.3683648401833Q828.4371893822807 315.897663897926 826.8353274089312 313.4948709379016Q825.2540021275477 311.09207797787735 822.2556451005088 309.83933976795004Q819.2572880734699 308.58660155802283 814.3079453096591 308.58660155802283L814.3079453096591 308.58660155802283Q810.3238270682511 308.58660155802283 806.6272225143675 309.1410922411054Q802.930617960484 309.695582924188 800.0349443932752 310.3527570671006L800.0349443932752 310.3527570671006Q796.646390218882 311.1742247457414 793.7507166516731 312.05730250028023L793.7507166516731 312.05730250028023L788.4317134324739 302.1586169726586Q791.6765107631051 300.67997515110517 795.8249225402411 299.48884701707607L795.8249225402411 299.48884701707607Q799.3777702503626 298.46201241877503 804.2449662463093 297.59947135620223Q809.132698934222 296.75746698559533 815.0472662204357 296.75746698559533L815.0472662204357 296.75746698559533Q823.549456694368 296.75746698559533 829.0943635251934 299.0370397938236Q834.6392703560189 301.3371492940179 837.8224576107518 305.4855610711538Q841.005644865485 309.6134361563238 842.2583830754122 315.4253199827075Q843.5111212853394 321.2166671171251 843.5111212853394 328.322362537368L843.5111212853394 328.322362537368L843.5111212853394 366.0277289869806ZM829.4640239805817 359.08632710246593L829.4640239805817 339.9255934981693Q827.3898180920137 339.6380798106451 825.0280985159214 339.3300294311547L825.0280985159214 339.3300294311547Q823.0360393952176 339.12466251149453 820.448416207499 338.8987588998683Q817.8607930197804 338.6728552882421 815.0472662204357 338.6728552882421L815.0472662204357 338.6728552882421Q810.8988544432998 338.6728552882421 807.4692268849744 339.4943229668829Q804.0395993266491 340.2952539535577 801.5135862148286 342.10248284656745Q799.0081097949742 343.9302484315432 797.5910780493189 346.805385306786Q796.1945829956294 349.68052218202877 796.1945829956294 353.82893395916483L796.1945829956294 353.82893395916483Q796.1945829956294 357.15587805766006 797.3035643617945 359.8872580891407Q798.4125457279596 362.6186381206213 800.3429947727655 364.63123393329136Q802.2529071256054 366.6232930539952 804.881603697256 367.6912010362282Q807.5103002689065 368.75910901846134 810.5291939879114 368.75910901846134L810.5291939879114 368.75910901846134Q811.9462257335667 368.75910901846134 813.5275510149503 368.34837517914093Q815.1294129882999 367.9581780317866 816.7107382696834 367.2804671969079Q818.2920635510669 366.6232930539952 819.8939255244165 365.7402152994564Q821.4752508058 364.8366008529515 822.8922825514554 363.9535230984127L822.8922825514554 363.9535230984127Q826.2192266499507 361.81770713394656 829.4640239805817 359.08632710246593L829.4640239805817 359.08632710246593ZM904.2175827368944 309.24377570093554L904.2175827368944 309.24377570093554Q901.2602990937876 309.24377570093554 898.3646255265787 310.43490383496464Q895.4894886513359 311.6054952770278 892.8197186957534 313.6180910896977Q890.1704854321367 315.6101502104017 887.7882291640784 318.25938347401825Q885.4265095879861 320.9291534296009 883.4344504672822 323.88643707270774L883.4344504672822 323.88643707270774L883.4344504672822 379.33550538096154L869.3873531625245 379.33550538096154L869.3873531625245 298.0102051955226L883.4344504672822 296.53156337396916L883.4344504672822 313.16628386644527L890.8276595750493 300.2281679278527Q891.7928840974523 299.6326038608381 893.2304525350737 299.01650310185755Q894.6680209726951 298.3798656509109 896.5163232496369 297.9075217356925Q898.3646255265787 297.41464112850804 900.4799047990788 297.0860540570517Q902.5746473796128 296.75746698559533 904.7926101119428 296.75746698559533L904.7926101119428 296.75746698559533Q908.1195542104382 296.75746698559533 910.3785903267003 297.35303105260994Q912.6376264429625 297.92805842765847 913.7466078091277 298.46201241877503L913.7466078091277 298.46201241877503L913.0072868983509 310.72241752248897Q911.8983055321859 310.3527570671006 909.6803427998557 309.798266384018Q907.4623800675256 309.24377570093554 904.2175827368944 309.24377570093554ZM973.6316015820419 381.6356148811558L973.6316015820419 369.35467308547584L967.2036169966775 377.48720310401984Q966.525906161799 377.9390103272723 965.3142413358037 378.4524276264227Q964.1025765098086 378.96584492557326 962.3158843087648 379.43818884079167Q960.549728799687 379.93106944797614 958.1880092235948 380.2596565194325Q955.8057529555365 380.58824359088885 952.9306160802937 380.58824359088885L952.9306160802937 380.58824359088885Q946.1945811154392 380.58824359088885 940.4032339810215 377.30237287632565Q934.5913501546379 374.01650216176245 930.2991815337398 368.34837517914093Q926.0275496048075 362.7007848884855 923.5836832608511 355.12274555302406Q921.1398169168949 347.54470621756275 921.1398169168949 339.0425157436305L921.1398169168949 339.0425157436305Q921.1398169168949 330.39656842593604 923.357779649225 322.6953089386785Q925.5757423815551 315.0145861433871 930.0116678462155 309.24377570093554Q934.4475933108757 303.4729652584839 941.0193347400021 300.1254844680226Q947.6116128610945 296.75746698559533 956.339706946653 296.75746698559533L956.339706946653 296.75746698559533Q959.0710869781337 296.75746698559533 961.6997835497842 296.98337059722155Q964.3079434294688 297.1887375168818 966.608052929663 298.0102051955226L966.608052929663 298.0102051955226L973.6316015820419 308.5044547901588L973.6316015820419 296.53156337396916L987.6786988867995 298.0102051955226L987.6786988867995 382.74459624732094Q987.6786988867995 389.97351181935994 985.193759158911 396.3398863288261Q982.7293561229886 402.70626083829234 978.0675270467021 407.3886266065448Q973.4056979704155 412.0915290667634 966.710736389493 414.82290909824405Q960.0363115005366 417.5542891297247 951.5957311025024 417.5542891297247L951.5957311025024 417.5542891297247Q945.7633105841527 417.5542891297247 941.3684585034244 416.07564730817126Q936.9530697307302 414.59700548661783 933.8520292438611 412.8308499775401L933.8520292438611 412.8308499775401Q930.2991815337398 410.75664408897217 927.7115583460212 408.0252640574914L927.7115583460212 408.0252640574914L934.9610106100263 399.89273403894754Q937.1173632664584 401.5151327042631 939.7665965300748 402.8500176820544L939.7665965300748 402.8500176820544Q942.0667060302692 403.95899904821954 945.085599749274 404.84207680275836Q948.125030160245 405.7251545572972 951.6778778703665 405.7251545572972L951.6778778703665 405.7251545572972Q956.2575601787889 405.7251545572972 960.2416784201968 403.83577889642345Q964.2463333535707 401.96693992751557 967.2446903806097 398.70160590491844Q970.2225107156826 395.45680857428727 971.9270561488622 391.061956493559Q973.6316015820419 386.6465677208647 973.6316015820419 381.6356148811558L973.6316015820419 381.6356148811558ZM973.6316015820419 359.00418033460187L973.6316015820419 317.6843560989697Q971.6395424613379 315.15834298714924 968.9697725057553 313.16628386644527L968.9697725057553 313.16628386644527Q966.6901996975271 311.4617384332656 963.4248656749298 310.02416999564423Q960.1800683442988 308.58660155802283 955.9700464912646 308.58660155802283L955.9700464912646 308.58660155802283Q951.5341210266042 308.58660155802283 948.2687870040072 309.9830966117122Q945.023989673376 311.40012835736763 942.6828067892498 313.7618479334599Q940.3621605970894 316.12356750955223 938.9245921594681 319.26568138035327Q937.4870237218468 322.4077952511543 936.6244826592738 325.91956957734374Q935.7824782886671 329.43134390353316 935.4744279091767 333.02526499758665Q935.1869142216525 336.59864939967406 935.1869142216525 339.9255934981693L935.1869142216525 339.9255934981693Q935.1869142216525 346.2098212397714 936.5628725833758 351.5082877670045Q937.9182942531331 356.7862176022717 940.4032339810215 360.5855056159854Q942.867637016944 364.40533032166513 946.3794113431334 366.54114628613115Q949.8911856693228 368.69749894256324 954.1217442143229 368.69749894256324L954.1217442143229 368.69749894256324Q957.8799588441045 368.69749894256324 960.8372424872114 367.8760312639224Q963.7945261303182 367.0545635852817 966.1562457064106 365.69914191552436Q968.5385019744688 364.32318355380096 970.3457308674787 362.59810142865535Q972.1529597604883 360.8524826115437 973.6316015820419 359.00418033460187L973.6316015820419 359.00418033460187ZM1065.8208118175053 362.7007848884855L1073.8917317601513 369.8064803087283Q1071.591622259957 372.16819988482064 1068.8602422284762 374.1602590055245Q1066.1288621969957 376.15231812622847 1062.8019180985004 377.58988656384986Q1059.4749740000052 379.0479916934373 1055.4292456826993 379.80784929618005Q1051.4040540573594 380.58824359088885 1046.4547112935484 380.58824359088885L1046.4547112935484 380.58824359088885Q1036.617635841825 380.58824359088885 1029.6762339573102 377.11754264863146Q1022.7142953808295 373.64684170637406 1018.3194433001012 367.79388449605835Q1013.924591219373 361.9614639777087 1011.8914587147369 354.42449802617944Q1009.858326210101 346.88753207465004 1009.858326210101 338.6728552882421L1009.858326210101 338.6728552882421Q1009.858326210101 333.415462144941 1010.8235507325039 328.281289153436Q1011.7887752549068 323.14711616193097 1013.6986876077467 318.4852870856445Q1015.6291366525526 313.823458009358 1018.5042735277954 309.83933976795004Q1021.3999470950042 305.8552215265422 1025.24030849265 302.95954795933346Q1029.0806698902957 300.08441108409056 1033.9273291942764 298.42093903484295Q1038.773988498257 296.75746698559533 1044.606409016607 296.75746698559533L1044.606409016607 296.75746698559533Q1052.5951821913884 296.75746698559533 1058.427602709738 299.3450901733139Q1064.2805599200537 301.93271336103237 1068.1209213176996 306.594542437319Q1071.9612827153453 311.2358348216394 1073.809584992287 317.7459661748678Q1075.657887269229 324.2560975280961 1075.657887269229 332.1627239350138L1075.657887269229 332.1627239350138Q1075.657887269229 334.46283343520804 1075.5141304254666 337.19421346668867Q1075.3703735817046 339.9255934981693 1075.0623232022144 342.3694598421257L1075.0623232022144 342.3694598421257L1023.9054235148586 342.3694598421257Q1023.9054235148586 347.914366672951 1025.4251387203442 352.7199525929998Q1026.9448539258296 357.52553851304845 1029.6762339573102 361.11945960710193Q1032.407613988791 364.69284400918934 1036.2890487703687 366.72597651382534Q1040.1704835519465 368.75910901846134 1044.976069471995 368.75910901846134L1044.976069471995 368.75910901846134Q1049.6995086241798 368.75910901846134 1053.2112829503692 368.0608614916166Q1056.7230572765584 367.362613964772 1059.249070388379 366.35631605843696Q1061.7545468082335 365.370554844068 1063.356408781583 364.32318355380096Q1064.9377340629665 363.2963489555 1065.8208118175053 362.7007848884855L1065.8208118175053 362.7007848884855ZM1034.625576721121 331.27964618047486L1061.6107899644712 331.27964618047486Q1061.6929367323353 330.45817850183414 1061.7134734243014 329.6572475151594Q1061.7545468082335 328.83577983651855 1061.7545468082335 328.0348488498438L1061.7545468082335 328.0348488498438Q1061.7545468082335 323.8042903048437 1060.7893222858304 320.2719792866882Q1059.8446344553936 316.7191315765667 1057.8731120266557 314.09043500491623Q1055.9221262898836 311.4617384332656 1052.8826958789127 309.9830966117122Q1049.863802159908 308.5044547901588 1045.7153903827718 308.5044547901588L1045.7153903827718 308.5044547901588Q1040.766047618961 308.5044547901588 1037.2542732927716 310.1063167635083Q1033.7424989665822 311.68764204489185 1031.339706006558 314.1725817727803Q1028.9369130465334 316.63698480870266 1027.4993446089122 319.5942684518095Q1026.0412394793248 322.5515520949165 1025.301918568548 325.221322050499L1025.301918568548 325.221322050499L1021.4615571709023 333.2717053011788L1034.625576721121 331.27964618047486Z " fill="#fce77d" transform="matrix(0.8134556473701544,0,0,0.8134556473701545,0,21.347259348731825)"/></g></svg>